<?xml version="1.0" encoding="utf-8"?>
<!-- Generator: Adobe Illustrator 23.1.1, SVG Export Plug-In . SVG Version: 6.00 Build 0)  -->
<!DOCTYPE svg PUBLIC "-//W3C//DTD SVG 1.1//EN" "http://www.w3.org/Graphics/SVG/1.1/DTD/svg11.dtd" [
	<!ENTITY ns_extend "http://ns.adobe.com/Extensibility/1.0/">
	<!ENTITY ns_ai "http://ns.adobe.com/AdobeIllustrator/10.0/">
	<!ENTITY ns_graphs "http://ns.adobe.com/Graphs/1.0/">
	<!ENTITY ns_vars "http://ns.adobe.com/Variables/1.0/">
	<!ENTITY ns_imrep "http://ns.adobe.com/ImageReplacement/1.0/">
	<!ENTITY ns_sfw "http://ns.adobe.com/SaveForWeb/1.0/">
	<!ENTITY ns_custom "http://ns.adobe.com/GenericCustomNamespace/1.0/">
	<!ENTITY ns_adobe_xpath "http://ns.adobe.com/XPath/1.0/">
]>
<svg version="1.1" id="Layer_1" xmlns:x="&ns_extend;" xmlns:i="&ns_ai;" xmlns:graph="&ns_graphs;"
	 xmlns="http://www.w3.org/2000/svg" xmlns:xlink="http://www.w3.org/1999/xlink" x="0px" y="0px" viewBox="0 0 114 66"
	 style="enable-background:new 0 0 114 66;" xml:space="preserve">
<style type="text/css">
	.st0{fill:#981AB8;}
</style>
<metadata>
	<x:xmpmeta  xmlns:x="adobe:ns:meta/">
		<rdf:RDF  xmlns:rdf="http://www.w3.org/1999/02/22-rdf-syntax-ns#">
			
				<rdf:Description  rdf:about="" xmlns:dc="http://purl.org/dc/elements/1.1/" xmlns:stDim="http://ns.adobe.com/xap/1.0/sType/Dimensions#" xmlns:xmp="http://ns.adobe.com/xap/1.0/" xmlns:xmpG="http://ns.adobe.com/xap/1.0/g/" xmlns:xmpGImg="http://ns.adobe.com/xap/1.0/g/img/" xmlns:xmpTPg="http://ns.adobe.com/xap/1.0/t/pg/">
				<xmp:CreatorTool>Adobe Illustrator CC 23.1 (Macintosh)</xmp:CreatorTool>
				<xmp:CreateDate>2019-11-09T15:52:52+08:00</xmp:CreateDate>
				<xmp:Thumbnails>
					<rdf:Alt>
						<rdf:li  rdf:parseType="Resource">
							<xmpGImg:width>256</xmpGImg:width>
							<xmpGImg:height>108</xmpGImg:height>
							<xmpGImg:format>JPEG</xmpGImg:format>
							<xmpGImg:image>/9j/4AAQSkZJRgABAgEASABIAAD/7QAsUGhvdG9zaG9wIDMuMAA4QklNA+0AAAAAABAASAAAAAEA
AQBIAAAAAQAB/+4ADkFkb2JlAGTAAAAAAf/bAIQABgQEBAUEBgUFBgkGBQYJCwgGBggLDAoKCwoK
DBAMDAwMDAwQDA4PEA8ODBMTFBQTExwbGxscHx8fHx8fHx8fHwEHBwcNDA0YEBAYGhURFRofHx8f
Hx8fHx8fHx8fHx8fHx8fHx8fHx8fHx8fHx8fHx8fHx8fHx8fHx8fHx8fHx8f/8AAEQgAbAEAAwER
AAIRAQMRAf/EAaIAAAAHAQEBAQEAAAAAAAAAAAQFAwIGAQAHCAkKCwEAAgIDAQEBAQEAAAAAAAAA
AQACAwQFBgcICQoLEAACAQMDAgQCBgcDBAIGAnMBAgMRBAAFIRIxQVEGE2EicYEUMpGhBxWxQiPB
UtHhMxZi8CRygvElQzRTkqKyY3PCNUQnk6OzNhdUZHTD0uIIJoMJChgZhJRFRqS0VtNVKBry4/PE
1OT0ZXWFlaW1xdXl9WZ2hpamtsbW5vY3R1dnd4eXp7fH1+f3OEhYaHiImKi4yNjo+Ck5SVlpeYmZ
qbnJ2en5KjpKWmp6ipqqusra6voRAAICAQIDBQUEBQYECAMDbQEAAhEDBCESMUEFURNhIgZxgZEy
obHwFMHR4SNCFVJicvEzJDRDghaSUyWiY7LCB3PSNeJEgxdUkwgJChgZJjZFGidkdFU38qOzwygp
0+PzhJSktMTU5PRldYWVpbXF1eX1RlZmdoaWprbG1ub2R1dnd4eXp7fH1+f3OEhYaHiImKi4yNjo
+DlJWWl5iZmpucnZ6fkqOkpaanqKmqq6ytrq+v/aAAwDAQACEQMRAD8A9U4q7FXYq7FXYq7FXYq7
FXYq7FXYq7FXYq7FXYqwv85f/Jbax/0bf9RUWZOk/vB+OjkaT+8H46PmHNy7l7f/AM45f7ya7/xk
tv8AiMma3X8w63X8w9jzXuA+fP8AnIT/AJTSy/7ZsX/J+fNrofoPvdrofoPveYZmuY+vvKn/ACi2
j/8AMDbf8mVzQZfqPvdDk+o+9NMgwdirsVdirsVdirsVdirsVdiqW+YfMWk+X9NbUdVm9C1VlSoB
ZizHZVVaknJ48ZmaDOEDI0GKf8rv/L3/AJbJv+REv9Mv/J5O5u/KZO5kXlrzl5f8yWlxd6XcF4LV
uE7SKY+J48qnlTanfKcmKUDRasmKUDRSXVfzi8g6dOYDfm6kU0f6qjSqKf5eyH/Yk5bHSZD0bI6X
Ieinp/50fl/eTCI3z2rHZWuInRT/ALIBlH0kYy0mQdEy0mQdGbQzwzwpNBIssMgDRyIQysp6EEbE
ZjkU4xDHfMf5jeT/AC9K0Go36i7UVNrCDLIK9mCAhf8AZEZbj0858g3Y8E58gkcX56eQHkVWmuI1
J3kaBio+fHkfuGW/ksjZ+TyMw0TzHoeuW5uNJvYryJdn9M/EpPQOhoy/SMx545R5honCUeYTHIMF
k9xBbwvPcSLDDGOUksjBVUeJY7DCBagWwnVPzo8gWEhjW9e9dTRhaxs4+h24IfoOZEdJkPSnJjpM
h6Jen5++R2ahivkFacmhSnz2kJyf5Kfky/JT8mU+X/P3lHX3EWmalHLcHpbPyil96JIFLU9q5RPB
OPMNM8M48wyDKmp45+Zn5p+VdX8q6poVm05v5GjRQ8fFKw3CO3xV8EObDT6aUZCR5Ofp9PKMhI8n
iGbJ2T0v8n/P/l/yrBqias0oa7eFofSTntGHDV3H8wzD1WCU6pw9VglMinqOi/m95R1nVLfTLAXU
l3ctwjUw0A2qSxrsABU5hT0s4iy4U9LOIssb87eZvyav9elXX7aa+1CxH1RpojOEAjZmKj05I1PF
nbemXYceYR9OwLdhx5hH07ApD+kv+cef+rVdf8Fdf9V8s4dR3/c28Oo7/uZ5d/mt5I8vra6bItzF
GlrA9qoiLD0JIlaKjFqmimhr3zGGmnLdxRppy3UP+V7+Qv57r/kT/wA3YfyWRP5PIzDy55i0zzDp
MWqaa7NayllHMcWBRipDDenSuY+TGYGi0ZIGJopnkGDFfNX5leWPLF/HYao8v1mSITBYo+YCFioq
ajupy/Fp5TFhux6eUxYSb/le/kL+e6/5E/8AN2WfksjZ+TyMr8readL8zac2o6aJfqyyNFylTgSy
gE0FTt8WUZMZgaLTkxmBopbr/wCZ/knQ5mt7zUVkuk2a3twZnB8G4Aqp9mIycNNOXIMoaecuQY//
AMr/APJHKno31KV5elHT5f3uW/kZ+Tb+Sn5J9oP5p+SNalWC21FYblzRYLlTCxPgC3wEnwDZVPTT
jzDXPTzjzDLMoaHzj+dHnT9O+Yf0bavy03Si0akH4ZJ+kj7dQKcR/bm30mHhjZ5l22kxcMbPMvO8
y3LRlvrGp22nXWmwXDx2V6yPdRKaBzFy4hvb4zt8vDImAJvqGJgCb6hB5Jk7FWT+XPzF8zeX9Ivd
LsLgiC7WkRbdoHJHJ4vAstR+PXKcmCMyCWnJp4zIJY1JJJJI0kjF5HJZ3Y1JJ3JJPUnLm5biqa+W
PMmpeXdZt9UsHKyRMPUjqeMkf7UbjuGH9chkxiYosMmMTFF9Y2+r2M+jx6uJAljJbi79VtgsRT1O
TfJeuaIxINdXRmJBrq+afzE/MXUvNmouqu0GjQsRaWdaAgHaSUDq5/4XoO5O4wYBAebt8GAQHmw/
MhyHYq2jujq6MVdSCrA0II3BBGKvfvyb/Mq51tG0LWJTLqcCc7W6YjlNEv2lfxdOtf2h16VOq1en
EfUOTq9XpxH1Dk8L1j/jrXv/ADES/wDEzmzhyDsocghMkydir0ny0o8l+SJ/NMo465rYa00NGG8c
X+7LgeHt9HZsw8n7yfD/AAjm4eT95Ph/hHN5uSWJZjUnck9SczHMaxV61+bXl7n5O8reYIl+KKyt
7O6I/laIPEfobkPpGYGlyeuUfNwNLk9co+byXM9z3tv/ADjvrXK31XRHbeNkvIF9mHpy/cQn35rd
fDlJ12uhuJPZc17r3yr+Zmtfpjzxqt0rcoY5fq8FOnCAenUf6xUt9ObzTw4YAO708OGADGER3dUQ
FnYhVUdSTsBlzc9T89earjyxoNj5D0aUwy2sC/pm6iNGMso5vErDoCWJb5geOYWHFxyOQ/BwcOLj
kZy+DyvM1znYq7FXuP5H/mDdXrHyzqsxmlRC+mzyGrlEHxQknc8V+Jfao7DNbrMAHqDrdZgA9QZr
5m8neUYfLmrTRaHp8c0dncPHIlrCrKyxMQwIWoIOY2PLPiG5597j48s+Ibnn3vlnN27pPvI3ldvM
/mW10n1DDFJye4lG5WOMcmp7noPc5VmycEbas2Tgjb3OX8jPILWJt0gnjnI2vBM5kBpSvE/u/wDh
M1o1mS3WjWZLfPmu6TNpGs3ulzMHkspnhLgUDcGIDAHsw3zawlxAHvdrCXEAUEiM7qiDk7EKoHcn
YZJk+h/L/wCRflG20yFdXikvtQZAbh/VeNFcgVEYjKbKela1zUz1sydtg6mesmTtsHl35reRLXyl
rNulg7vp97GZIBKQzI6GjpUAVAqCPnmbpsxyDfmHN02YzG/MMIzJcl7BrXmKW3/IXR4UciXUXNmf
H0oZZOX0fugvyOYEMd5z5OBDHec+Tx/M9z3q35O/llpuvW8ut60hmso5DFa2tSqyMoBZ3K0PEVoB
XrWuYOr1Bj6Y83B1WoMTwxep6n+V/kTULM2z6RBb/DRJrVBDKp7HkgFT/rVzCjqZg3bhR1Ewbt82
+bPL0/l3zDe6PM3qG1eiS0pzjYB0anurCubfFk44gu4xZOOIKn5X1iTRvMOnapGaG1nR390rR1/2
SEjDkhxRIXJDiiQ9z/Njyf5WsfI2rajaaXbwXymFluUQBwXuY1Y19wxzWaXLIzAJ2dbpssjMAnZ8
85tnavXPyJ8t6BrNtrDarYQ3rQvAIjMgbiGElaV8aDMDW5JRIo04GtySiRRp7BqPlLyzqSwLf6Zb
3C2qCK2V4wRGg6Ko7DbMCOWQ5FwI5JDkXgv53aLpOkea7S20u0js7d7CORooVCqXM0qlqDvRRmz0
czKJJPV2mjmZRNnq89zLcp9SyaCmvfljb6UwHO50yAQk9BKsKtGd/B1GaQT4cl+bpRPhyX5vlt0d
HZHBV1JVlPUEbEZu3dMu/KbWv0T5702RjSG6Y2c29NpxxWvyk4nMfVQ4oFo1UOKBfR3mzWV0Xy1q
WqE8Wtbd3ir/AL8I4xj6XIGanFDikA6jHDikA+QySxLMak7knqTm+d8zL8pdFj1DzfDd3ArY6Qja
hcn/AIw7p/w9D9GY+qnUK6nZx9VOoV1OzFdT1CfUdRur+4NZ7uV5pCTX4nYsf15fGNCm+MaFJv5E
0TS9Y8zWtpqtzHaaaOUt1JJIsQKIK8AzFd3NFyvNMxjY5teeZjGxze+/on8nvqn1X0tE9Ljw5crb
1Kf8Za+pX35VzV8ea79Tq+PLd+p8+ectI0/SPMt9Y6dcpd2EbhrWeN1kBjdQ4HJdiV5cT7jNrimZ
RBPN2uGZlEE81LypqkmleZdM1FCQbe5jZqd05AOu3ipIw5Y8USE5Y8USH1T5r/5RbWP+YG5/5Mtm
jxfUPe6TH9Q975Bzfu+ejfkL/wAp0f8AmDm/4kmYmt+j4uJrfo+L6MzUOpfKX5l/8p7rn/MU/wDD
N5p/7sO70/8AdhJdH/461l/zERf8TGWT5FsnyL7Hzn3QPFv+cj/+me/6PP8AmRmx0H8Xw/S7HQfx
fD9LxbNi7Bnfmd2H5UeS0r8Jl1Ake4uGp+vMXH/ey+DjY/72XwYJmU5L6h/KCNE/LrRwopyWZj7k
zyE5pdV/eF02qP7wsxzHcd85fnyir58JAoXtIS3uasP1DNvovo+LttF9HxedZluW+lPzRZm/KO8Z
xxZobIsp3IJnhqK5p9N/ej4uo0396Pi+a83Dt3t//OOX+8mu/wDGS2/4jJmt1/MOt1/MPY817gPn
z/nIT/lNLL/tmxf8n582uh+g+92uh+g+95hma5j6+8qf8oto/wDzA23/ACZXNBl+o+90OT6j73zv
+cPl79D+d7tkXjbajS9h8KyE+oNv+LA30ZttJk4oDydrpZ8UPcwuOR45FkjYq6EMjDqCDUHMlyS9
t/N7zjHffl3oohYCTXfTnlRTsEhUNIv+xlZR9Ga3S4qyH+i63S4qyH+i8QzZOye5flh5eOn/AJW6
7qsi8bjVba5ZD39GGJ0T/huZ+7Nbqcl5QO51upneQDueG5snZOxV2KuxV2Kvr7zX/wAotrH/ADA3
P/Jls0GL6h73Q4/qHvfIOb93z0b8hf8AlOj/AMwc3/EkzE1v0fFxNb9HxfRmah1L5S/Mv/lPdc/5
in/hm80/92Hd6f8Auwkuj/8AHWsv+YiL/iYyyfItk+RfY+c+6B4t/wA5H/8ATPf9Hn/MjNjoP4vh
+l2Og/i+H6Xi2bF2D0rX9Peb8j/LF6or9Uu7hX9llnmFf+CQD6cw4S/fyHk4cJfv5Dyea5mOY+hP
yH8y2l35X/QbSqt9p0khSEkBmhlYyBl8aOzA+G3jmq1uMiXF0LqtbjIlxdC9Nd0RGd2CooLMzGgA
G5JJzCcN8sfmf5httf8AOl9e2j+pZpxgt5BuGWJeJYezNUjN3psZjAAu602MxgAWOWFnLe31vZwi
stzKkMY6/FIwUficukaFt0jQt9K/nBEsf5ZarFGPhjW2VR12W5izT6U/vR+OjqNL/eD8dHzHm5dw
9n/5xzvbcPrdiWpcOIJ0TuUTmrH/AGJdfvzXa8ci6/XjkXtea51z58/5yE/5TSy/7ZsX/J+fNrof
oPvdrofoPveYZmuY+vvKn/KLaP8A8wNt/wAmVzQZfqPvdDk+o+9gv59+XjfeWINWiWs2lS/vCOvo
zUVvucJ+OZWiyVKu9ydFOpV3vnvNq7VF3eqXl1Z2VpM/KDT0eO2XwWSRpW/4Z8iIgEnvYiIBJ73a
RplxqmqWmm2wrPeSpDH7F2AqfYdcZS4QSVnLhBL60m0WBPLMmiWq8YRZtZwqf5fSMa1zRCfq4j3u
j4/VZ73yCysrFWFGU0IPUEZv3fMx/Key8u3/AJtTTtet0uLa8heKBZGZQJ6q6GqlTUhCo375j6ky
ELi4+qMhC4vcf+VSfl3/ANWaP/kZN/zXmt/NZO91v5nJ3sR822f5KeV9St9Pv9HMs8o5SrbvK5hX
biZAZV+12A3y/Ec0xYLfiOaYsFNNB8r/AJJa8o/RVvbXEh/3R606Sj/nm7q/4ZCeTNHmwnkzR52z
XzX/AMotrH/MDc/8mWzGxfUPe4+P6h73yDm/d89G/IX/AJTo/wDMHN/xJMxNb9HxcTW/R8X0Zmod
S+UvzL/5T3XP+Yp/4ZvNP/dh3en/ALsJLo//AB1rL/mIi/4mMsnyLZPkX2PnPugeLf8AOR//AEz3
/R5/zIzY6D+L4fpdjoP4vh+l4tmxdg+ivIOg2+v/AJL2mkXB4pdx3Kq9K8HF3KyPT/JcA5qc8+HM
T+OTqc8zHNf45PAdY0i/0fUrjTdQiMN3bOUkQ9PYqe6kbg9xm0hMSFh2kJiQsIe3ubi2mSe2leCe
M1SWNijqfEMtCMJF82RAPNMr/wA3eadQtzbX2r3dzbt9qGSaRkb/AFlJofpyEcURuAGEcURuAEpy
xm9Q/I7yVNqOtr5huoyNP04n6uWG0lxSgp7R15fOmYWszVHhHMuFrM1DhHMvaPOujPrXlTVNMiFZ
ri3YQjxkX44x9LqM12GfDMF1+KfDIF8kOjIxRwVdSQykUII6gjN871Vsr69sblLqynktrmPdJoWK
OvyZSDgMQRRQYgiiyjy5548zy+Z9He/1e7uLZL23MsUk8hQp6o5VUtx6eOU5MMeE0ByacmGPCaA5
Mh/5yE/5TSy/7ZsX/J+fKdD9B97VofoPveYZmuY+vvKn/KLaP/zA23/Jlc0GX6j73Q5PqPvRWq6b
b6npl3p1yKwXcTwyewdStR7itRgjLhIIRGVGw+QNS0+407ULmwuV43FrK8Mo/wApGKn9Wb+MrFh3
0ZWLCGwpepfkF5e+ueY7jWZVrDpkfGI/8XTgqPuQN94zC12So13uFrclR4e99AZqnVvmf83/ACfN
oHmme6ijI03U3a4tnA+FXY1lj/2LGo9iM3Oly8Ua6h3Gly8Ua6hgoJBqNiOhzJclkEP5g+d4bcW8
et3giUcVHqsSB0oGPxD78qOCHcGo4IdwSKe4nuJnnuJGmmkJaSWRizMT1JY7k5aBTaBT0r8lfIc2
raxHr17GRpmnPzg5Daa4X7IFe0Z+InxoPHMPV5uEcI5lw9Xm4RwjmXvOtWUl/o9/YxsFkureWBGa
vENIhUE0rtvmrgaILrImiC8N/wChefNP/Vxsfvm/6p5svz8e4uy/PR7iyv8ALb8ptb8q+Yzql7d2
08Jgkh4QmTlVypB+JVFPhynUaqM40A0ajUicaAep5guE8Y82/kj5h1nzJqOq299aRw3kzSxpIZeQ
B7GiEZscWsjGIFF2GLWRjECkvsfyA8zW97b3DahZFYZUkYAy1IVgdvgyUtdEjkWUtbEiqL3fNY61
gH5rfl5qnnH9F/ULmC3+o+v6nrlxX1vTpx4K3T0zmVps4x3fVytNnGO76sA/6F580/8AVxsfvm/6
p5lfn49xcr89HuL1/wAheXbry75TsdGupEmuLX1eckVeB9SZ5BTkFPR/DMDPkE5khwM2QTkSFLzj
+X/l7zXAo1CIx3cYpBew0WVR14kkEMtex+imHFnlDknFnlDk8o1T/nHnzBE7HTNRtrqIfZEweF6f
ICRfxzOjro9Q5sddHqEBH+QXnlnCtJZID1ZpnoP+BjJ/DJfnYebP87DzZV5c/wCcfLKCZJ9fv/rY
U1NnbAxoadmlPxkfIL88pya4n6Q0ZNcT9IetWdlaWVrFaWkSwW0KhIoYwFVVHYAZgEkmy4JJJsq2
BDzjz1+S+k+YbuTUtPn/AEbqUvxTDjyglb+ZlFCrHuR91cy8OrMBR3Dl4dWYCjuHn035A+d0kKpL
ZSr2dZXFfoaMHMsa6Hm5Q1sPNE6X+QfnBbmKe4u7K3ETqwo8jv8ACQagBAPxwS1sK5FEtbCuRZj+
Z/5V6z5t1+31Kxu7aCKK0S3ZJzIGLLJI9RxVhSkgzH02pGONEdXH0+pEI0Qw/wD6F580/wDVxsfv
m/6p5f8An49xcj89HuL3LRbKSw0ewsZGDSWtvFA7LXiWjQKSK022zWzNkl1sjZJRmRYvIvzE/JnW
Nf8AM02r6RcWkMV0iGeO4aRG9VRxJHCOQUIAPzrmfg1YjGjbn4NWIxo2xn/oXvzp/wAtum/8jZ/+
qGXfnodxbvz0O4vW/wAuPJ7+VPLUenTvHJeySPPdyRElC7Gi8SwVqBFUbjMHUZeOV9HAz5eOVsoy
hpQOt6HpWt6dJp+qW63NrL1RuoI6MrDdWHiMlCZibDKEzE2HkOuf847zeqz6HqiekalYLxSCvgPU
jDV/4DM+Gv8A5wc+Gu/nBIR+QXnn1OPqWQWtOfrPSnj/AHdafRlv52Hm2/nYebJ/Lf8Azj3DFMk/
mG/FwqkE2loGVGp2aVqNT5KPnlOTXfzQ05Ncf4Q9dsrK0srSK0tIlgtoFCRRIKKqjoAMwCSTZcAk
k2VbAh2KuxV2KuxV2KuxV2KuxV2KuxV2KuxV2KuxV2KuxV2KuxV2KuxV2KuxV2KuxV2KuxV2KuxV
2KuxV2KvLvzp1LzHaX3l5NDvJ7aZxezPHDI8ay/V0ilCuqkB9g1AfHM3SRiRLiHc5ukjEiXEO5J/
zO/MHUdR0fTD5du5bUfVF1TUpLaRo3RJJFt0iLoQdpHIYfI5Zp8ABPEOtBnp8IBPEOtJ2ja95y80
3ujrqt1pWiaJb2y3Bsn9O4nmuI+VWk3NNm8Rt03yv044g1ZLX6ccQaslbFa65p/mtvI15rl/caXq
9t9Z0/UVm439u0L82T16EkMIiDt0O1N8SYmPGALHyUmJjxgCx8lDyZ5fv7/zRr1rc+ZNbeDQryFL
ZDesRIp5MRMCpDA8KbUw5cgEQRGPqHcnLkAiPTH1DuSPTPMHmOw0TRfNk2p3lxZ2uqz2mrQyTySI
1vIwCsyMSDw+ID3plsoRMjChy2bJQiSY0OWzLfM+q6nqv5gWei6ZezW9lpFpJqOqNbyNGHJUGKN+
BHIfY2PZjmPjiI4ySNyaDRjiI4zIjc7BhHlfXNEu9ItX1rzb5lh1WUsJ47a4mMIPqMqcSY5P2ONf
i65k5ISB9MY05OSJBNRjT0f83tQv7Dymk9jcy2k5vLdDLA7RtxZjVeSkGhzE0sQZb9ziaaIMt+5i
Nz538waD+Y+uXdxJPdeV7W4t7a/hLs62wuI6xyRoSeNGQ1p16dSMvGGMsYH8TeMMZYwP4k40mC68
0eZ/Ntk2uajbWNtPYT2MthdNHRHglqqE81Eb8gxCjcgHK5kQjE0L35hhIiEYmhe/NLvIum6ne6Dq
muXPmHWJbjTpr2CG3a8doGWKL4C6MCSfirsRvk80gJCIjHeujLNIAiIEd66JJ5V1rQ7vT7FtV82e
ZU1aVqTQwzzGDkXIUAmN9iKV+LLMsJAmoxpsyxkCajGla91e1fWvNf6V84anpFxZ3kq6XawXMvpF
VLHj6QDVFQBQEYIxPDGog2N0CJ4Y1EGwnl15t8zL+U+metJIvmbW5FsbGRSUmbnKVWX4QCGMQ+0O
5BysYo+Kf5o3axij4p/mjdbpnnXW/Lvk/wAz2Oozte695bmEcU87F2kjupFSGUlzyYBn5b9qDGWG
M5xI2jJMsQnOJG0ZJjafl95sn0231P8AxdqMfmCVUmblJyslLAMY/QGxUV+X+TkTngDXCOH7WBzx
uuEcP2oDz5oWqadqWhyReZNYV9b1SG0vEiu2ihRZj8Zt41/u/wDJBLU98lgmCD6Y7DuZYZgg+mOw
7l+qaTqtl5x0ny1a69qkkN7YXzGe4u5GkEpR/TcsnCvpsAV2wRkDAyIGxHREZAwMiBzHRbpv5gXl
r+VN/cXsznzBpjyaW5kYmU3JbjG5J+IlVapJ6lThlgByivpO6ZYAcoA+k7pDqk99pGt6JpfmPzFr
NrCdGS4vJLO5nMxupLiU0b+8rxHwVp0UZbECUSYxj9TbGpRJjGP1PSfy6l0qfSbibTNU1LVYDcFG
m1V2eVXVFJVOaoeNGB+eYecEHcAe5w893uAPc81vNZmOv6rF5q8w6x5c1QXMg0z0S/6PSGvwfAtS
4NOooDtvmYIekcMYyHXvcwQ9I4YxkOveyGWz1HXfzATRj5k1GOzj0OG7W50659BZpRIqerxXlHRw
9dh9OVAiOO+EfV1agRHHfCPq6obU9Y80eXW8w+WL3U5r5RpMmo6RqbNxukAbgVZ1PKtQ1DWu3vsY
wjPhkBW9EJjGMuGQFeqiEJo3nzWh5I1TRdZnlh16LTPr+lX5kYSz20sYkRlkryMiA9Qa/SpyU8Ee
MSH03RZTwjjBH03ReoeT55rjylok88jSzy2Fq8srks7O0KlmZjuSTuScwsoqZ95cPKKmfe828/6y
sH5kfUtR1vVdM0j6gknHTJpEb1eRA+BQ43HU8czMELx2ACb6uXgj+7sAE31SY+Ztf/wD5luLPWry
4srW+to9K1CWZlveDP8AvA5VvUUEcaV675Z4cfEjYF1v3M/Dj4kbAut+5PfzE/NbR73ytcQaDe3l
tqTPEY5Ujmt2ChwW/eUWm3vlWDTES9QFNeDTES9QFI59L1LzD+ZHmawbXtU0620+Oze1isrpoow0
sCFqoeS0rvtTI8QhjiaBu2PEIY4mgbtNfImr67B5g1nylrV1+kZtKEc1pqBADyQygECSn7Q5D8d+
mV5oxMROO1teaMeESG1pp5j8r3eq+Z/LmqxSRrb6O9y1xG9eTidEUBKAj9neuQx5BGMh3sYZAIyH
exRfyce28u+ZdNs7iET6xPF9ReTlxhtYZ1mWNiATXrWgp0y/83cok9G781cok9E1v/JPmWx179P+
Vb21hvbm3jt9Ss71XNvKYlChwYwXBoo/ruchHNEx4ZDZhHLEx4ZDZE+WfJ2tp5im8z+Z7yG71dov
q9pDahhb28RNSE5gMSa9/E9a5HJljw8MRsjJlHDwxGyN8r+V7zSNe8xajPLHJFrFxHPAicuSKgYE
PUAV+LtkcmQSjEdzDJkEogdyWaL+Xc0HkLUfK+oyxSvevO6Sx8iis5DRN8QU1R1Byc895BIdGcs/
rEh0a8gfl/f+XtO1P9JXUd3quohYjcJyKrDFHwjWrANtU1+jHPnEyK5Bc+YTIrYBL/LvlT81NA0e
30iw1DSPqltz9P1EnZv3jtIakKP2nOTyZcUjZBZ5MmORsgsk/MDyveeZdBXTrSWOGVbiKfnLy48Y
ySR8IY1ynBkEJWWnDkEJWVDTfJPDWvNVzqXpXOneYvQC245cgkSOjB6gUPx7cThlm9MQOcWUsvpi
Bzig/wAt/wAvbryfd6yZLpLq1vmhFmRy9RY4fUoJKgCtJB0yWozjIB5Ms+fxANuSK8q+Tr/R/LOr
aTPNFJNfz3UsTx8uKi4QKoaoB2pvkcuUSkD3UxyZRKQPclHl3yx+aehaXa6VaahpBsrWoTmk7PxZ
y53oP5jlmTJikbINs8mTHIkkG10/5VLeweaEvngM2sXZu9NuUBMkDAlk5MVBG5+IL2xGprhroN1G
orhrop6h+W/mHzFfaO/mbUUNrpdqYnNlI6zSXBb++BdAF5KE5e4wx1EYA8I5pjnjAHhHNDy/ktDF
qsps72STSNQtHtdTS7kMk5aoeKSMhAp9OREajeGEavbcbg7J/N7bjcHZEw+V/wA2otOi0SLXbCPT
oSsaamqS/XhCpHEcaenUAU+1X/KyJyYr4qN93RByYr4qN93RPvNPlS/1h/LrRXKFtHv7e8uZJtml
WGnKgRePJvoGV48ojxeYaseQRvzC/UfK95dee9I8wpLGtrp9vNBLEeXqM0oYArQUp8XjgjkAgY96
I5AIGPex3VPypuLzz2NYS6jTQprmG+vdPPLk9xArAHjTiQzHff8AaOWx1NQr+Lk3R1NQrqmHmbyp
5tn85QeZPL91ZQPFYCxZLwSN/u15GICD/KHfI48sBDhkDzYY8keDhlfO2QeW4vNMdtKPMU9pPcl6
wtZq6oEoNm5965VkMb9NtU+G/Sw/WfKf5o3+n3ujS6lpV/pl0z8bq7ikFyiOT9lVRowVB+E9R2Iz
IhlxAg0QXIhkxgg0QVkX5d+btG1i0v8Ay5qFn/o+mR6Y7XyyMWCuHdgqA0qyim+w2xOeEhUgedr4
8ZAiQPO9ldPy11i5tddvtY1GK88x6xaNZRSqpS2giNKKgpy/ZG9P4kj8wAQAKiCjxwKAHpBX+Z/y
uGt+TtJ0z1Y4db0i1ht4b0cuDBI1jlRqDlwalRtt9+DHqeGZPQrj1HDMnoU+8t6V5m0xrCyuLi1k
0ay0y3tfTjV/WN1Cqoz8iAPTIU07+2V5JRlZ6ktWSUTZ6kpL5g8n+bpPO3+JtAu7KF/qi2nC7Ejb
ciWNEHy75ZDLDg4ZA82yGWPBwyB5pRdflV5kvtH8wC+v7VtY12e3lcxB0tlW3avQLXk1T+z9O5yw
amIIobRZjUxBjQ2iy/8AMLyxeeZvK8+kWkscM8rxuskvLgAjhjXiGPbMfBkEJWWjBkEJWUlvvKXn
m2846xr2gXmnxRaqsCtHdrK7gQRKn7Ip9oHvlkcsDARkDs2DLAwEZA7L9K8keaNJgvNRtdSt7nzT
qlxFJqN7co3o+ghNYolUVG3TYeG2Ms0ZUCPSFlljKgR6QyHXvNFpo91Z28sbStcrPNKUqfSt7aMv
JKVUMzblVCjqTlMMZkCWqGMyBSa0/Mf65p0EttpM7apd3k9jaaWzqkha23keVmosYRftdaHbLDp6
PPartmcFHntXNM9L842dxpmo3mowtpc2kO0eqW0zKxiKqHBDLs6urAqR1yEsRBAG98mMsRBAG98k
BbfmGJvLy6o2mTR3U18NNttOLqJGmZgFDuQqx+9emTOD1VfS2Rw+qr6Wqweb9auVvLa20B31nT5o
o7zT2uYlVY54zIkqT0KP0px64DiiKN7FBxgVvsUqufzWax03U7rUNFmin0+4FosEMonWSUJzlBlR
eCCJacsmNNZAB5sxp7IAPNNrzzdrn6ev9J0rQjqP6OEPrTm6igFZ4/UUBXX598gMUeEEmr8mAxjh
BJq071fUzpuiXuqSRczZW0ty8AahPpRlynKh/lpXKoxuQHe1xjZA70HqHmZLPTdJvjblxqlxaWyx
8qcDeMAGJpvx5fTko47JHdf2Mo47JHdf2K/l/W01ixecRG3ngnltbq2Y8jHLC5RlqKV7EHwOCcOE
onDhKZ5Bg7FXYq7FXYq7FXYq7FXYq7FXYq7FXYq7FXYq7FXYq7FXYq7FXYq7FWLX5Ft+ZGlTzbR3
um3Vnbt/xcksU5X6Y1P3ZfHfGfIhujvjPvCRQaD5i06+TW4bBrp7LWNWleyV0WWW0v3FJIuRC1HB
W4kgnLDOJHDfOI+YbDOJFX0HzCqvkzXtde+1O8m/Qsl/fw3Y0540uQYrSJY4BOA4UklebLUjpXpj
4sY0BvQR4sY0BvQQc/lLza3l/UrS6A1KK41g3FxZKkVvJPah2aVonLEK0p4sNwV47HfCMsOIEbel
kMkeIEbbJj5Y0/WdD03zDcadpEtrbTFZtF0qd45LhpvTIdpHDv8ACz8dmckAHI5JCRiCfeWOSQkR
Z95X6l5Svrb8rbvQ7ZDdatPAXuCCOU11K4klapoD8RNK9sEcoOUSPJEcoOQSPJC+cfLy3upaoU8q
y3uoXkSJYavFcoqCRYgqu4eRPRaJuhVTyGSxToD1UO5linQHqodyd3fljX7rRbqzn1qSZrrTWsmt
WjhEPrPbeiZeYT1t3q/2++VjJESuurWMkQQa6pIsfmzV4PL2jz6HLp/6KurS41G9lkiaErZb0h4M
zN6hUU22/HLPRHiN3YP2tnpjZu7v7U78iOsw1+9jH+jXmr3Els46OkccUDOPYvE2VZug/oteboPJ
lGUtLsVdirsVdirsVdirsVdirsVdirsVdirsVdirsVdirsVdirsVdirsVQ93+jvUtvrfo+p6v+h+
rx5etxb+65ft8OX2d6Vwi+iRfREYEOxV2KuxV2KuxV2KuxVD6d+jvqUX6O9H6lQ+j9X4+lSprx4f
D1r0wyu9+aZXe6IwIdirsVdirsVdirsVdirsVdirsVdirsVdirsVdirsVdirsVdirsVdir//2Q==
								</xmpGImg:image>
						</rdf:li>
					</rdf:Alt>
				</xmp:Thumbnails>
				<xmpTPg:MaxPageSize  rdf:parseType="Resource">
					<stDim:w>114.000000</stDim:w>
					<stDim:h>66.000000</stDim:h>
					<stDim:unit>Pixels</stDim:unit>
				</xmpTPg:MaxPageSize>
				<xmpTPg:NPages>1</xmpTPg:NPages>
				<xmpTPg:HasVisibleTransparency>False</xmpTPg:HasVisibleTransparency>
				<xmpTPg:HasVisibleOverprint>False</xmpTPg:HasVisibleOverprint>
				<xmpTPg:PlateNames>
					<rdf:Seq>
						<rdf:li>Cyan</rdf:li>
						<rdf:li>Magenta</rdf:li>
					</rdf:Seq>
				</xmpTPg:PlateNames>
				<xmpTPg:SwatchGroups>
					<rdf:Seq>
						<rdf:li  rdf:parseType="Resource">
							<xmpG:groupName>Default Swatch Group</xmpG:groupName>
							<xmpG:groupType>0</xmpG:groupType>
						</rdf:li>
					</rdf:Seq>
				</xmpTPg:SwatchGroups>
				<dc:format>image/svg+xml</dc:format>
			</rdf:Description>
		</rdf:RDF>
	</x:xmpmeta>
	<sfw  xmlns="&ns_sfw;">
		<slices></slices>
		<sliceSourceBounds  bottomLeftOrigin="true" height="44.7" width="109.1" x="3" y="6.7"></sliceSourceBounds>
	</sfw>
</metadata>
<title>image 2</title>
<desc>Created using Figma</desc>
<g>
	<path class="st0" d="M9.8,50.7H8.9v-3.8l-1.5,3.8H7.1l-1.5-3.8v3.8H4.7v-4.9h1.2l1.3,3.4l1.3-3.4h1.2v4.9H9.8z"/>
	<path class="st0" d="M14.8,50.1c-0.5,0.5-1.1,0.7-1.8,0.7s-1.3-0.2-1.8-0.7s-0.7-1.1-0.7-1.8s0.2-1.3,0.7-1.8s1.1-0.7,1.8-0.7
		s1.3,0.2,1.8,0.7s0.7,1.1,0.7,1.8S15.3,49.6,14.8,50.1z M13,50c0.5,0,0.9-0.2,1.2-0.5s0.5-0.8,0.5-1.3s-0.2-0.9-0.5-1.3
		c-0.3-0.3-0.7-0.5-1.2-0.5s-0.9,0.2-1.2,0.5s-0.4,0.8-0.4,1.3s0.1,0.9,0.4,1.3C12.1,49.9,12.5,50,13,50z"/>
	<path class="st0" d="M18.1,50.7h-0.9v-4.2h-1.5v-0.8h3.8v0.8H18v4.2H18.1z"/>
	<path class="st0" d="M21,50.7h-0.9v-4.9H21V50.7z"/>
	<path class="st0" d="M24.4,50.7h-1.1l-1.9-4.9h1l1.5,4l1.5-4h1L24.4,50.7z"/>
	<path class="st0" d="M30.1,50.7h-3.4v-4.9h3.4v0.8h-2.5v1.3h2.5v0.8h-2.5V50h2.5V50.7z"/>
	<path class="st0" d="M33.5,50.7h-0.9v-4.9h0.9V50.7z"/>
	<path class="st0" d="M38.6,50.7h-0.8l-2.6-3.5v3.5h-0.9v-4.9h0.9l2.5,3.4v-3.4h0.9C38.6,45.8,38.6,50.7,38.6,50.7z"/>
	<path class="st0" d="M41.6,50.7h-0.9v-4.2h-1.5v-0.8H43v0.8h-1.5v4.2H41.6z"/>
	<path class="st0" d="M47,50.7h-3.4v-4.9H47v0.8h-2.5v1.3H47v0.8h-2.5V50H47V50.7z"/>
	<path class="st0" d="M51.6,50.7h-1l-1.1-1.8h-0.9v1.8h-0.9v-4.9h2.2c0.5,0,0.9,0.1,1.2,0.4c0.3,0.3,0.4,0.7,0.4,1.1
		c0,0.4-0.1,0.7-0.3,1s-0.5,0.4-0.8,0.5L51.6,50.7z M49.8,48.1c0.2,0,0.4-0.1,0.6-0.2c0.2-0.1,0.2-0.3,0.2-0.6
		c0-0.2-0.1-0.4-0.2-0.6c-0.2-0.1-0.4-0.2-0.6-0.2h-1.2v1.6H49.8z"/>
	<path class="st0" d="M56.7,50.7h-1l-0.4-1H53l-0.4,1h-1l1.9-4.9h1.1L56.7,50.7z M55.1,49l-0.9-2.3L53.3,49H55.1z"/>
	<path class="st0" d="M59.2,50.8c-0.7,0-1.4-0.2-1.8-0.7c-0.5-0.5-0.7-1.1-0.7-1.8s0.2-1.4,0.7-1.8c0.5-0.5,1.1-0.7,1.8-0.7
		c0.9,0,1.5,0.4,2,1.1l-0.7,0.4c-0.1-0.2-0.3-0.4-0.5-0.5s-0.5-0.2-0.7-0.2c-0.5,0-0.9,0.2-1.2,0.5s-0.5,0.8-0.5,1.3
		s0.2,0.9,0.5,1.3c0.3,0.3,0.7,0.5,1.2,0.5c0.3,0,0.5-0.1,0.7-0.2c0.2-0.1,0.4-0.3,0.5-0.5l0.7,0.4C60.7,50.4,60,50.8,59.2,50.8z"/>
	<path class="st0" d="M63.8,50.7h-0.9v-4.2h-1.5v-0.8h3.8v0.8h-1.5v4.2H63.8z"/>
	<path class="st0" d="M66.7,50.7h-0.9v-4.9h0.9V50.7z"/>
	<path class="st0" d="M70.1,50.7H69l-1.9-4.9h1l1.5,4l1.5-4h1L70.1,50.7z"/>
	<path class="st0" d="M75.8,50.7h-3.4v-4.9h3.4v0.8h-2.5v1.3h2.5v0.8h-2.5V50h2.5V50.7z"/>
	<path class="st0" d="M80,50.8c-0.8,0-1.5-0.3-2-0.8l0.5-0.7c0.4,0.5,0.9,0.7,1.6,0.7c0.3,0,0.6-0.1,0.7-0.2
		c0.2-0.1,0.2-0.3,0.2-0.5s-0.1-0.3-0.2-0.4c-0.1-0.1-0.3-0.2-0.5-0.2s-0.4-0.1-0.7-0.2c-0.2-0.1-0.5-0.2-0.7-0.2
		c-0.2-0.1-0.4-0.2-0.5-0.4s-0.2-0.4-0.2-0.7c0-0.4,0.2-0.8,0.5-1c0.3-0.3,0.8-0.4,1.3-0.4c0.8,0,1.4,0.2,1.8,0.7L81.3,47
		c-0.4-0.4-0.9-0.6-1.4-0.6c-0.3,0-0.5,0.1-0.6,0.2c-0.2,0.1-0.2,0.3-0.2,0.4c0,0.1,0.1,0.2,0.2,0.3s0.2,0.2,0.4,0.2
		c0.2,0.1,0.4,0.1,0.6,0.1s0.4,0.1,0.6,0.2c0.2,0.1,0.4,0.2,0.6,0.3s0.3,0.2,0.4,0.4s0.2,0.4,0.2,0.6c0,0.4-0.2,0.8-0.5,1.1
		C81.1,50.7,80.6,50.8,80,50.8z"/>
	<path class="st0" d="M84.4,50.7h-1.8v-4.9h1.8c0.8,0,1.4,0.2,1.9,0.7s0.7,1,0.7,1.8c0,0.7-0.2,1.3-0.7,1.8
		C85.8,50.5,85.1,50.7,84.4,50.7z M84.4,50c0.5,0,0.9-0.2,1.2-0.5c0.3-0.3,0.5-0.7,0.5-1.2s-0.1-0.9-0.4-1.2s-0.7-0.5-1.2-0.5h-1V50
		H84.4z"/>
	<path class="st0" d="M91.9,50.7h-0.8l-2.6-3.5v3.5h-0.9v-4.9h0.9l2.5,3.4v-3.4h0.9V50.7z"/>
	<path class="st0" d="M93.5,50.6c-0.1,0.1-0.2,0.2-0.4,0.2c-0.1,0-0.3-0.1-0.4-0.2c-0.1-0.1-0.2-0.2-0.2-0.4c0-0.1,0.1-0.3,0.2-0.4
		c0.1-0.1,0.2-0.2,0.4-0.2c0.1,0,0.3,0.1,0.4,0.2c0.1,0.1,0.2,0.2,0.2,0.4C93.7,50.4,93.6,50.5,93.5,50.6z"/>
	<path class="st0" d="M98.7,50.7h-2.5v-4.9h2.4c0.4,0,0.8,0.1,1,0.4c0.2,0.2,0.4,0.5,0.4,0.9c0,0.3-0.1,0.5-0.2,0.8
		c-0.2,0.2-0.4,0.3-0.6,0.4c0.3,0,0.5,0.2,0.7,0.4s0.3,0.5,0.3,0.8c0,0.4-0.1,0.7-0.4,1C99.5,50.6,99.2,50.7,98.7,50.7z M98.5,47.8
		c0.2,0,0.4-0.1,0.5-0.2c0.1-0.1,0.2-0.3,0.2-0.5s-0.1-0.3-0.2-0.5c-0.1-0.1-0.3-0.2-0.5-0.2h-1.4v1.3h1.4V47.8z M98.5,50
		c0.2,0,0.4-0.1,0.5-0.2c0.1-0.1,0.2-0.3,0.2-0.5s-0.1-0.4-0.2-0.5s-0.3-0.2-0.5-0.2h-1.4V50H98.5z"/>
	<path class="st0" d="M105.2,50.7h-0.9v-2.2h-2.6v2.2h-0.9v-4.9h0.9v2h2.6v-2h0.9V50.7z"/>
	<path class="st0" d="M107.9,50.7h-1.8v-4.9h1.8c0.8,0,1.4,0.2,1.9,0.7s0.7,1,0.7,1.8c0,0.7-0.2,1.3-0.7,1.8
		C109.3,50.5,108.7,50.7,107.9,50.7z M107.9,50c0.5,0,0.9-0.2,1.2-0.5c0.3-0.3,0.5-0.7,0.5-1.2s-0.1-0.9-0.4-1.2s-0.7-0.5-1.2-0.5
		h-1V50H107.9z"/>
	<path class="st0" d="M111.7,50.6c-0.1,0.1-0.2,0.2-0.4,0.2c-0.1,0-0.3-0.1-0.4-0.2c-0.1-0.1-0.2-0.2-0.2-0.4c0-0.1,0.1-0.3,0.2-0.4
		c0.1-0.1,0.2-0.2,0.4-0.2c0.1,0,0.3,0.1,0.4,0.2c0.1,0.1,0.2,0.2,0.2,0.4C111.9,50.4,111.8,50.5,111.7,50.6z"/>
	<path class="st0" d="M5.6,59.1l-0.3,0.2c-0.6-0.8-0.9-1.7-0.9-2.7s0.3-1.9,0.9-2.7l0.3,0.2c-0.2,0.4-0.4,0.8-0.5,1.2
		s-0.2,0.8-0.2,1.3s0.1,0.9,0.2,1.3C5.2,58.3,5.4,58.7,5.6,59.1z"/>
	<path class="st0" d="M7.3,58.1H6.8v-3.4l-0.7,0.7l-0.3-0.3l1-1.1h0.4L7.3,58.1L7.3,58.1z"/>
	<path class="st0" d="M9.7,58.2c-0.3,0-0.5-0.1-0.7-0.2c-0.2-0.1-0.4-0.3-0.5-0.5s-0.2-0.4-0.3-0.7c-0.1-0.2-0.1-0.5-0.1-0.8
		s0-0.5,0.1-0.8c0.1-0.2,0.1-0.5,0.3-0.7C8.6,54.3,8.8,54.1,9,54s0.4-0.2,0.7-0.2s0.5,0.1,0.7,0.2s0.4,0.3,0.5,0.5s0.2,0.4,0.3,0.7
		c0.1,0.2,0.1,0.5,0.1,0.8s0,0.5-0.1,0.8c-0.1,0.2-0.1,0.5-0.3,0.7c-0.1,0.2-0.3,0.4-0.5,0.5S9.9,58.2,9.7,58.2z M9,57.5
		c0.2,0.2,0.4,0.3,0.6,0.3c0.2,0,0.5-0.1,0.6-0.3s0.3-0.4,0.3-0.6c0.1-0.2,0.1-0.5,0.1-0.8s0-0.6-0.1-0.8s-0.2-0.4-0.3-0.6
		s-0.4-0.3-0.6-0.3c-0.2,0-0.5,0.1-0.6,0.3c-0.2,0.2-0.3,0.4-0.3,0.6c-0.1,0.2-0.1,0.5-0.1,0.8s0,0.6,0.1,0.8
		C8.8,57.1,8.9,57.3,9,57.5z"/>
	<path class="st0" d="M14.2,58.1h-0.5v-1h-2v-0.4l1.8-2.6h0.7v2.6h0.6v0.4h-0.6V58.1z M13.7,56.6v-2.1l-1.4,2.1H13.7z"/>
	<path class="st0" d="M17.8,57.9c-0.3,0.2-0.6,0.3-1,0.3s-0.8-0.1-1-0.3c-0.3-0.2-0.4-0.5-0.4-0.8s0.1-0.5,0.3-0.7s0.4-0.3,0.7-0.4
		c-0.3-0.1-0.5-0.2-0.7-0.4s-0.3-0.4-0.3-0.6c0-0.3,0.1-0.6,0.4-0.8s0.6-0.3,1-0.3s0.7,0.1,1,0.3s0.4,0.4,0.4,0.8
		c0,0.3-0.1,0.5-0.3,0.6c-0.2,0.2-0.4,0.3-0.7,0.4c0.3,0.1,0.5,0.2,0.7,0.4s0.3,0.4,0.3,0.7C18.2,57.4,18.1,57.7,17.8,57.9z
		 M16.8,57.7c0.3,0,0.5-0.1,0.7-0.2c0.2-0.1,0.3-0.3,0.3-0.5s-0.1-0.3-0.2-0.4c-0.1-0.1-0.3-0.2-0.4-0.3s-0.3-0.1-0.4-0.1
		s-0.2,0-0.4,0.1c-0.1,0.1-0.3,0.1-0.4,0.3c-0.1,0.1-0.2,0.3-0.2,0.4c0,0.2,0.1,0.4,0.3,0.5C16.3,57.7,16.5,57.7,16.8,57.7z
		 M16.8,55.8c0.1,0,0.2,0,0.2-0.1c0.1,0,0.2-0.1,0.3-0.1c0.1-0.1,0.2-0.1,0.3-0.2c0.1-0.1,0.1-0.2,0.1-0.3c0-0.2-0.1-0.4-0.3-0.5
		c-0.2-0.1-0.4-0.2-0.6-0.2c-0.3,0-0.5,0.1-0.6,0.2c-0.2,0.1-0.3,0.3-0.3,0.5c0,0.1,0,0.2,0.1,0.3c0.1,0.1,0.2,0.2,0.3,0.2
		c0.1,0.1,0.2,0.1,0.3,0.1C16.6,55.7,16.7,55.8,16.8,55.8z"/>
	<path class="st0" d="M19.9,58.1h-0.6l1.7-3.6h-2.2V54h2.8v0.4L19.9,58.1z"/>
	<path class="st0" d="M23.3,58.1h-0.5v-3.4l-0.7,0.7l-0.3-0.3l1-1.1h0.4v4.1H23.3z"/>
	<path class="st0" d="M25.7,58.2c-0.6,0-1.1-0.2-1.4-0.7l0.3-0.3c0.3,0.4,0.7,0.5,1.1,0.5c0.3,0,0.5-0.1,0.7-0.3s0.3-0.4,0.3-0.6
		c0-0.3-0.1-0.5-0.3-0.6C26.2,56,26,56,25.7,56c-0.4,0-0.7,0.1-0.9,0.4l-0.4-0.1V54h2.5v0.5h-2v1.4c0.3-0.2,0.6-0.4,1-0.4
		s0.7,0.1,0.9,0.4c0.3,0.2,0.4,0.6,0.4,1s-0.1,0.7-0.4,1C26.4,58,26.1,58.2,25.7,58.2z"/>
	<path class="st0" d="M29.1,56.8h-1.5v-0.4h1.5V56.8z"/>
	<path class="st0" d="M31.5,58.2c-0.5,0-1-0.1-1.2-0.4c-0.3-0.3-0.4-0.7-0.4-1.2V54h0.5v2.5c0,0.4,0.1,0.7,0.3,0.9
		c0.2,0.2,0.5,0.3,0.9,0.3s0.7-0.1,0.9-0.3s0.3-0.5,0.3-0.9V54h0.5v2.5c0,0.5-0.1,0.9-0.4,1.2C32.4,58,32,58.2,31.5,58.2z"/>
	<path class="st0" d="M34.2,57.9c0.1-0.4,0.2-0.8,0.2-1.3s-0.1-0.9-0.2-1.3c-0.1-0.4-0.3-0.8-0.5-1.2l0.3-0.2
		c0.6,0.8,0.9,1.7,0.9,2.7s-0.3,1.9-0.9,2.7l-0.3-0.2C33.9,58.7,34.1,58.3,34.2,57.9z"/>
</g>
<g>
	<path class="st0" d="M32.8,22.2c-1.1-1.2-2.7-1.8-5-1.8c-1.3,0-2.4,0.3-3.3,0.8s-1.6,1.2-2.3,2.1c-1.1-1.9-3-2.9-5.6-2.9
		c-1.1,0-2.1,0.2-3,0.6s-1.6,1-2.2,1.6L11,20.5H5.7L3,25.2l0,0l0,0l0,0h3.2v15.2H12V28.9c0-0.7,0.1-1.3,0.2-1.7
		c0.2-0.4,0.4-0.8,0.6-1c0.3-0.2,0.6-0.4,0.9-0.5c0.3-0.1,0.7-0.1,1.1-0.1c0.8,0,1.4,0.2,1.9,0.7c0.4,0.5,0.7,1.3,0.7,2.6v11.5h5.8
		V28.9c0-0.7,0.1-1.2,0.2-1.7c0.1-0.4,0.3-0.8,0.6-1c0.2-0.2,0.5-0.4,0.9-0.5c0.3-0.1,0.7-0.1,1.1-0.1c1,0,1.6,0.3,2,0.8
		s0.6,1.4,0.6,2.6v11.5h5.8V28C34.4,25.3,33.8,23.4,32.8,22.2z"/>
	<path class="st0" d="M51.5,22.6c-0.8-0.8-1.8-1.4-3-1.8c-1.1-0.4-2.4-0.6-3.7-0.6c-1.4,0-2.6,0.2-3.7,0.6c-1.1,0.4-2.1,1-3,1.8
		c-0.8,0.8-1.5,1.9-2,3.2c-0.5,1.3-0.7,2.8-0.7,4.7c0,1.8,0.2,3.4,0.7,4.7s1.1,2.4,2,3.2c0.8,0.8,1.8,1.4,3,1.8
		c1.1,0.4,2.4,0.6,3.7,0.6s2.6-0.2,3.7-0.6c1.2-0.4,2.1-1,3-1.8c0.8-0.8,1.5-1.9,2-3.2s0.7-2.9,0.7-4.7s-0.2-3.4-0.7-4.7
		C53,24.5,52.3,23.4,51.5,22.6z M47.5,34.5c-0.7,0.8-1.6,1.2-2.7,1.2c-1.1,0-2.1-0.4-2.7-1.2c-0.7-0.8-1-2.1-1-4.1
		c0-1.9,0.3-3.2,1-4s1.6-1.2,2.7-1.2c1.1,0,2.1,0.4,2.7,1.2c0.7,0.8,1,2.1,1,4.1C48.5,32.4,48.2,33.8,47.5,34.5z"/>
	<polygon class="st0" points="89.7,20.4 86,33.1 85.9,33.6 85.8,33.1 82.1,20.4 75.4,20.4 82.8,40.5 88.7,40.5 96.2,20.4 	"/>
	<path class="st0" d="M111.4,25.8c-0.4-1.3-0.9-2.4-1.6-3.2c-0.7-0.8-1.6-1.4-2.7-1.8s-2.3-0.6-3.6-0.6c-1.4,0-2.6,0.2-3.7,0.6
		s-2,1-2.8,1.8s-1.4,1.9-1.8,3.2c-0.4,1.3-0.6,2.8-0.6,4.7s0.2,3.4,0.6,4.7s1,2.3,1.8,3.1s1.7,1.4,2.8,1.7c1.1,0.4,2.3,0.5,3.7,0.5
		c1.8,0,3.4-0.4,4.7-1.3c1.3-0.9,2.4-2.3,3.4-4.2c0,0-0.2,0-0.7-0.2s-1-0.3-1.5-0.5c-0.7-0.2-1.4-0.5-2.2-0.7
		c-0.5,0.9-1.1,1.4-1.6,1.7c-0.6,0.3-1.3,0.4-2,0.3c-0.5,0-0.9-0.1-1.3-0.2c-0.4-0.1-0.7-0.3-1-0.5c-0.3-0.3-0.5-0.6-0.6-1.1
		c-0.1-0.4-0.2-1-0.2-1.8l0.8,0.1H112c0.1-0.6,0.1-1,0.1-1.2v-0.6C112,28.7,111.8,27.1,111.4,25.8z M105.6,27.9h-4.4
		c-0.1,0-0.2,0-0.3,0c-0.1,0-0.2,0-0.3,0.1c0.1-0.9,0.4-1.6,0.8-2.1s1.2-0.8,2.2-0.8c0.9,0,1.5,0.3,2,0.8c0.4,0.5,0.7,1.2,0.7,2.1
		L105.6,27.9z"/>
	<rect x="69" y="14.6" class="st0" width="5.8" height="4.2"/>
	<path class="st0" d="M67,35.4c-0.5,0.1-0.9,0.1-1.3,0.2c-0.4,0.1-0.8,0.1-1,0.1c-0.4,0-0.7,0-1-0.1s-0.5-0.2-0.7-0.5
		c-0.2-0.2-0.3-0.6-0.4-1c-0.1-0.4-0.1-0.9-0.1-1.6v-7.2h2l2.8-4.8l0,0h-4.7v-5.8h-5.7v5.8h-2.4v4.8h2.4v8.3c0,2.5,0.6,4.3,1.7,5.4
		c1.2,1.1,2.9,1.6,5.3,1.6c0.6,0,1.3,0,1.9-0.1s1.3-0.2,2-0.3l-0.2-2.3L67,35.4z"/>
	<polygon class="st0" points="65.8,25.3 65.9,25.3 69,25.3 69,40.5 74.8,40.5 74.8,25.3 74.8,20.5 74.8,20.4 68.6,20.4 	"/>
</g>
</svg>
